<svg height="480pt" viewBox="0 -32 480.00327 480" width="480pt" xmlns="http://www.w3.org/2000/svg"><path d="m479.722656 405.863281-48-176c-.949218-3.480469-4.113281-5.898437-7.722656-5.894531h-64v-112c.003906-2.691406-1.347656-5.199219-3.589844-6.679688-.539062-.351562-1.117187-.636718-1.71875-.847656h-.050781l-58.640625-20.96875v-59.503906c.003906-2.574219-1.230469-4.992188-3.320312-6.496094-.664063-.457031-1.390626-.8125-2.15625-1.058594l-48-16c-1.640626-.550781-3.417969-.550781-5.058594 0l-48 16c-3.292969 1.027344-5.519532 4.101563-5.464844 7.554688v59.503906l-58.566406 20.917969h-.113282c-.605468.210937-1.183593.496094-1.71875.847656-2.261718 1.488281-3.617187 4.023438-3.601562 6.730469v112h-64c-3.605469-.003906-6.769531 2.414062-7.71875 5.894531l-48 176c-.65625 2.40625-.152344 4.980469 1.363281 6.960938 1.511719 1.980469 3.863281 3.144531 6.355469 3.144531h464c2.496094 0 4.847656-1.164062 6.359375-3.144531 1.515625-1.980469 2.019531-4.554688 1.363281-6.960938zm-354.871094-110.542969 112 48c.109376.046876.230469 0 .335938.070313 1.789062.757813 3.808594.757813 5.597656 0 .105469-.046875.222656 0 .335938-.070313l112-48c2.953125-1.25 4.875-4.144531 4.878906-7.351562v-16h17.96875l27.425781 96h-332.695312l29.910156-96h17.390625v16c.003906 3.199219 1.910156 6.089844 4.851562 7.351562zm107.148438-188.296874-32-16v-55.953126l32 10.664063zm-43.574219-3.855469 48 24c.113281.054687.246094 0 .367188.078125 2.015625 1.007812 4.386719 1.007812 6.402343 0 .117188-.046875.253907 0 .367188-.078125l48-24c1.363281-.691407 2.503906-1.761719 3.277344-3.082031l35.265625 12.601562-90.105469 38.574219-90.117188-38.613281 35.261719-12.601563c.769531 1.335937 1.910157 2.417969 3.28125 3.121094zm91.574219-68.097657v55.953126l-32 16v-61.289063zm-32 130.167969 96-41.136719v158.59375l-96 41.136719zm-112-41.136719 96 41.136719v158.59375l-96-41.136719zm104-107.703124 22.714844 7.570312-22.714844 7.566406-22.710938-7.566406zm-221.519531 383.570312 43.632812-160h57.886719v16h-23.269531c-3.496094-.003906-6.589844 2.261719-7.640625 5.597656l-34.914063 112c-.761719 2.433594-.324219 5.085938 1.1875 7.140625 1.511719 2.054688 3.910157 3.265625 6.460938 3.261719h354.175781c2.511719 0 4.875-1.175781 6.386719-3.179688 1.515625-2.003906 2-4.601562 1.3125-7.011718l-32-112c-.980469-3.441406-4.121094-5.8125-7.699219-5.808594h-24v-16h57.890625l43.632813 160zm0 0"/><path d="m165.679688 154.289062c-3.207032-2.960937-8.148438-2.960937-11.359376 0-.722656.761719-1.292968 1.660157-1.679687 2.636719-.410156.964844-.625 1.996094-.640625 3.042969-.027344 1.046875.191406 2.089844.640625 3.039062.410156.96875.976563 1.859376 1.679687 2.640626.78125.703124 1.671876 1.273437 2.640626 1.679687 1.9375.851563 4.144531.851563 6.082031 0 2.007812-.726563 3.589843-2.3125 4.320312-4.320313.851563-1.9375.851563-4.144531 0-6.082031-.40625-.96875-.976562-1.859375-1.683593-2.636719zm0 0"/><path d="m154.320312 186.289062c-1.476562 1.519532-2.308593 3.554688-2.320312 5.679688-.027344 1.046875.191406 2.089844.640625 3.039062.410156.96875.976563 1.859376 1.679687 2.640626.78125.703124 1.671876 1.273437 2.640626 1.679687 1.9375.851563 4.144531.851563 6.082031 0 2.007812-.726563 3.589843-2.3125 4.320312-4.320313.410157-.960937.625-1.996093.636719-3.039062.019531-3.25-1.929688-6.191406-4.929688-7.4375-3.003906-1.246094-6.460937-.550781-8.75 1.757812zm0 0"/><path d="m324.402344 153.328125c-.410156-.316406-.871094-.558594-1.359375-.71875-.480469-.246094-.996094-.40625-1.53125-.480469-2.609375-.523437-5.308594.285156-7.199219 2.160156-1.460938 1.53125-2.289062 3.5625-2.3125 5.679688.011719 2.121094.839844 4.15625 2.320312 5.679688 2.292969 2.289062 5.746094 2.953124 8.722657 1.679687.964843-.410156 1.859375-.976563 2.636719-1.679687 1.503906-1.507813 2.339843-3.554688 2.320312-5.679688-.027344-2.121094-.855469-4.148438-2.320312-5.679688-.390626-.363281-.820313-.683593-1.277344-.960937zm0 0"/><path d="m324.402344 185.328125c-.410156-.316406-.871094-.558594-1.359375-.71875-.480469-.246094-.996094-.40625-1.53125-.480469-2.609375-.523437-5.308594.285156-7.199219 2.160156-1.460938 1.53125-2.289062 3.5625-2.3125 5.679688.011719 2.121094.839844 4.15625 2.320312 5.679688 2.292969 2.289062 5.746094 2.953124 8.722657 1.679687.964843-.410156 1.859375-.976563 2.636719-1.679687 1.503906-1.507813 2.339843-3.554688 2.320312-5.679688-.027344-2.121094-.855469-4.148438-2.320312-5.679688-.390626-.363281-.820313-.683593-1.277344-.960937zm0 0"/><path d="m72 111.96875c0 4.417969 3.582031 8 8 8s8-3.582031 8-8c0-1.601562.546875-40 48-40 4.417969 0 8-3.582031 8-8s-3.582031-8-8-8c-63.261719 0-64 55.4375-64 56zm0 0"/><path d="m48 87.96875c4.417969 0 8-3.582031 8-8 0-1.601562.546875-40 48-40 4.417969 0 8-3.582031 8-8s-3.582031-8-8-8c-63.261719 0-64 55.4375-64 56 0 4.417969 3.582031 8 8 8zm0 0"/><path d="m344 71.96875c46.21875 0 47.953125 35.878906 48 40 0 4.417969 3.582031 8 8 8s8-3.582031 8-8c0-.5625-.734375-56-64-56-4.417969 0-8 3.582031-8 8s3.582031 8 8 8zm0 0"/><path d="m376 39.96875c46.21875 0 47.953125 35.878906 48 40 0 4.417969 3.582031 8 8 8s8-3.582031 8-8c0-.5625-.734375-56-64-56-4.417969 0-8 3.582031-8 8s3.582031 8 8 8zm0 0"/></svg>