<svg height="510pt" viewBox="0 0 510.36 510" width="510pt" xmlns="http://www.w3.org/2000/svg"><path d="m398.359375.179688v214.96875c-43.695313-25.53125-93.394531-38.980469-144-38.96875-104.5.171874-200.746094 56.824218-251.625 148.105468l-2.183594 3.894532 2.183594 3.894531c42.15625 76.027343 116.445313 128.898437 202.085937 143.816406 85.644532 14.917969 173.433594-9.71875 238.8125-67.015625l-10.542968-12c-61.160156 53.59375-143.117188 76.949219-223.339844 63.640625-80.21875-13.304687-150.25-61.867187-190.828125-132.335937 48.652344-84.03125 138.335937-135.835938 235.4375-136 50.96875-.035157 100.902344 14.390624 144 41.601562v76.71875l56 88.664062 56-88.664062v-310.320312zm16 64h16v223.054687l-16 8zm40 305.015624-15.800781-25.015624h31.601562zm25.90625-41.015624h-51.808594l-10.609375-16.800782 19.710938-9.832031 16.800781 12.632813 16.800781-12.632813 19.710938 9.832031zm-33.90625-40v-224h16v224l-8 6zm48 7.054687-16-8v-223.054687h16zm0-247.054687h-80v-32h80zm0 0"/><path d="m134.359375 328.179688c0 66.273437 53.726563 120 120 120s120-53.726563 120-120c0-66.273438-53.726563-120-120-120-66.242187.074218-119.925781 53.757812-120 120zm94.136719-100.617188 8.367187 47.457031c-7.304687 2.421875-14.027343 6.324219-19.75 11.464844l-36.96875-31.023437c13.269531-13.535157 29.992188-23.183594 48.351563-27.898438zm25.863281 60.617188c22.09375 0 40 17.910156 40 40 0 22.089843-17.90625 40-40 40-22.089844 0-40-17.910157-40-40 .027344-22.082032 17.921875-39.972657 40-40zm-84.472656-20.441407 36.929687 30.992188c-4.0625 6.53125-6.726562 13.835937-7.816406 21.449219h-48.230469c1.433594-18.902344 8.050781-37.046876 19.117188-52.441407zm188.472656 60.441407c-.023437 55.835937-44.15625 101.675781-99.949219 103.828124-55.792968 2.148438-103.320312-40.160156-107.640625-95.828124h48.230469c4.269531 29.589843 31.03125 50.605468 60.789062 47.742187 29.761719-2.863281 52.023438-28.597656 50.570313-58.460937-1.449219-29.859376-26.101563-53.316407-56-53.28125-.582031 0-1.152344.074218-1.734375.089843l-8.394531-47.578125c3.335937-.320312 6.714843-.511718 10.128906-.511718 57.410156.066406 103.933594 46.589843 104 104zm0 0"/><path d="m285.558594 494.578125 1.648437 15.921875c74.859375-7.839844 144.570313-41.769531 196.929688-95.839844l-11.503907-11.121094c-49.738281 51.367188-115.960937 83.597657-187.074218 91.039063zm0 0"/><path d="m137.449219 183.722656-6.175781-14.742187c-51.875 21.695312-97.140626 56.632812-131.273438 101.3125l12.761719 9.703125c32.417969-42.453125 75.414062-75.652344 124.6875-96.273438zm0 0"/><path d="m238.734375 160.652344-.75-16c-22.195313 1.082031-44.210937 4.523437-65.679687 10.261718l4.109374 15.457032c20.371094-5.4375 41.261719-8.695313 62.320313-9.71875zm0 0"/><path d="m270.359375 16.179688h112v16h-112zm0 0"/><path d="m302.359375 56.179688h80v16h-80zm0 0"/><path d="m334.359375 96.179688h48v16h-48zm0 0"/></svg>