<?xml version="1.0" encoding="UTF-8"?>
<svg xmlns="http://www.w3.org/2000/svg" xmlns:xlink="http://www.w3.org/1999/xlink" width="512" height="512" viewBox="0 0 60 60" version="1.1"><!-- Generator: Sketch 51.3 (57544) - http://www.bohemiancoding.com/sketch --><title>012 - Edit Text</title><desc>Created with Sketch.</desc><defs/><g id="Page-1" stroke="none" stroke-width="1" fill="none" fill-rule="evenodd"><g id="012---Edit-Text" fill="#000000" fill-rule="nonzero"><path d="M11.92,16 L18.08,16 C18.5816184,16.0001393 19.0501055,15.7495298 19.3283997,15.332189 C19.6066939,14.9148482 19.6579559,14.3860216 19.465,13.923 L16.384,6.523 C16.1510259,5.96417691 15.6049421,5.60019992 14.9995,5.60019992 C14.3940579,5.60019992 13.8479741,5.96417691 13.615,6.523 L10.535,13.923 C10.3420441,14.3860216 10.3933061,14.9148482 10.6716003,15.332189 C10.9498945,15.7495298 11.4183816,16.0001393 11.92,16 Z M15,8.4 L17.331,14 L12.669,14 L15,8.4 Z" id="Shape"/><path d="M2,29 L8,29 C9.1045695,29 10,28.1045695 10,27 L10,26 C9.99715878,25.0134931 9.51156415,24.0908633 8.7,23.53 L10.167,20 L19.833,20 L21.588,24.217 C21.2052017,24.7325545 20.9989841,25.3578707 21,26 L21,27 C21,28.1045695 21.8954305,29 23,29 L29,29 C30.1045695,29 31,28.1045695 31,27 L31,26 C30.9978857,24.4411833 29.8041514,23.1427964 28.251,23.01 L19.18,1.231 C18.8694142,0.485331324 18.1407656,-0.000302895298 17.333,4.23429917e-17 L13.667,4.23429917e-17 C12.8592344,-0.000302895298 12.1305858,0.485331324 11.82,1.231 L2.749,23.01 C1.19584863,23.1427964 0.00211433151,24.4411833 0,26 L0,27 C2.09738034e-15,28.1045695 0.8954305,29 2,29 Z M2,26 C2,25.4477153 2.44771525,25 3,25 L3.42,25 C3.8238222,24.9998655 4.18793229,24.7568624 4.343,24.384 L13.667,2 L17.333,2 L26.657,24.384 C26.8120677,24.7568624 27.1761778,24.9998655 27.58,25 L28,25 C28.5522847,25 29,25.4477153 29,26 L29,27 L23,27 L23,26 C23.0040027,25.6919001 23.1455981,25.4017395 23.386,25.209 C23.7335967,24.9312445 23.8558685,24.4572375 23.686,24.046 L21.686,19.231 C21.3745779,18.4833108 20.6429478,17.9972683 19.833,18 L10.167,18 C9.35935132,17.998312 8.63044906,18.4839836 8.321,19.23 L6.477,23.655 C6.36218989,23.9308511 6.37674397,24.243589 6.51667728,24.5075849 C6.65661059,24.7715808 6.90726124,24.9591738 7.2,25.019 C7.6639235,25.1176028 7.99674471,25.5257248 8,26 L8,27 L2,27 L2,26 Z" id="Shape"/><path d="M42.112,51.28 L48.292,50.044 C48.7763649,49.9476703 49.2211865,49.7095967 49.57,49.36 L52.546,46.384 C52.8074121,46.1224696 53.007553,45.806206 53.132,45.458 L59.83,26.7 C60.1163189,25.8892813 59.9117422,24.9861881 59.304,24.378 C58.9974834,24.0764266 58.6077918,23.8733969 58.185,23.795 C58.0609259,23.1593718 57.6659496,22.6093993 57.1032643,22.2887705 C56.540579,21.9681417 55.8660838,21.908709 55.256,22.126 L54,22.578 L54,11.57 C54,7.243 54,-4.46691295e-16 44.75,-4.46691295e-16 C41.8428326,-0.0184684772 38.9763984,0.683795856 36.407,2.044 C35.644589,2.48300306 35.2585826,3.36866658 35.456,4.226 L36.067,6.861 C36.2048502,7.44824596 36.60225,7.94094808 37.147,8.2 C37.700402,8.46245662 38.3430249,8.45951388 38.894,8.192 C40.5309628,7.41085175 42.3212122,7.00368187 44.135,7 C44.9108183,6.95485539 45.6886512,7.04244614 46.435,7.259 C46.868,7.431 47.135,7.689 47.117,8.459 C47.117,8.721 47.104,9.43 47.084,9.999 C43.129,10.023 39.384,10.416 36.522,13.18 C33.8430608,15.7163103 32.7839886,19.5248154 33.769,23.08 C34.4752821,25.3657456 36.1535984,27.2237116 38.356,28.158 L36.499,28.822 C36.1505681,28.9465849 35.8340068,29.1466981 35.572,29.408 L32.6,32.39 C32.2502828,32.7383242 32.0121712,33.1828688 31.916,33.667 L30.68,39.848 C30.6604756,39.944649 30.6128111,40.0333678 30.543,40.103 L29.087,41.559 C28.3120731,41.44701 27.5296358,41.7063405 26.975,42.259 L22.732,46.5 C21.7560452,47.4762496 21.7560452,49.0587504 22.732,50.035 L31.925,59.228 C32.9012496,60.2039548 34.4837504,60.2039548 35.46,59.228 L39.7,54.985 C40.2526877,54.4299699 40.5119963,53.6472283 40.4,52.872 L41.855,51.417 C41.9251744,51.3468432 42.0146368,51.2991531 42.112,51.28 Z M35.688,22.511 C34.9121205,19.6709117 35.7689319,16.63456 37.915,14.619 C40.461,12.162 44,11.975 48,12 C49.12,12 49.12,11.108 49.12,8.48 C49.2462734,7.13167591 48.44905,5.86728451 47.178,5.4 C46.2008824,5.07528136 45.1708835,4.93953192 44.143,5 C42.0210586,5.00286873 39.9267357,5.4812587 38.014,6.4 L37.378,3.788 C39.6499936,2.59241307 42.1827243,1.97812626 44.75,2 C51.48,2 52,5.966 52,11.57 L52,23.292 L41.7,26.971 C38.9498397,26.9188443 36.5355672,25.1278171 35.688,22.511 Z M34.046,57.811 C33.8507501,58.006191 33.5342499,58.006191 33.339,57.811 L24.146,48.619 C23.950809,48.4237501 23.950809,48.1072499 24.146,47.912 L25.914,46.144 L35.814,56.044 L34.046,57.811 Z M38.289,53.569 L37.228,54.629 L27.328,44.729 L28.389,43.668 C28.5842499,43.472809 28.9007501,43.472809 29.096,43.668 L38.289,52.86 C38.3839648,52.9539219 38.437404,53.0819349 38.437404,53.2155 C38.437404,53.3490651 38.3839648,53.4770781 38.289,53.571 L38.289,53.569 Z M40.442,50 L39.349,51.1 L30.864,42.61 L31.956,41.518 C32.3060603,41.1693879 32.5445057,40.7245218 32.641,40.24 L33.876,34.06 C33.8956185,33.9628781 33.9436507,33.8737748 34.014,33.804 L36.989,30.828 C37.0415571,30.7756902 37.1050912,30.7357252 37.175,30.711 L42.187,28.921 L42.217,28.91 L53.379,24.923 L53.394,24.923 L55.929,24.023 C56.0270919,23.9893025 56.1355093,24.0270242 56.1914999,24.1143316 C56.2474905,24.201639 56.2365456,24.3159083 56.165,24.391 L47.027,33.528 C45.2921917,32.5044983 43.0669597,32.9305994 41.8329806,34.5225829 C40.5990016,36.1145663 40.7412587,38.3757569 42.1650296,39.8005347 C43.5888005,41.2253126 45.84989,41.3691682 47.4427454,40.1363149 C49.0356008,38.9034617 49.463275,36.6785314 48.441,34.943 L57.579,25.8 C57.6148455,25.7480819 57.6739097,25.7170871 57.737,25.7170871 C57.8000903,25.7170871 57.8591545,25.7480819 57.895,25.8 C57.9552035,25.8602422 57.9754329,25.9497182 57.947,26.03 L51.247,44.785 C51.2219361,44.8544504 51.1820056,44.9175884 51.13,44.97 L48.154,47.946 C48.0840966,48.0159836 47.9950061,48.0636609 47.898,48.083 L41.718,49.319 C41.2346347,49.4146911 40.790548,49.6516998 40.442,50 Z M46.42,38.368 C45.6286285,39.1233037 44.3833715,39.1233037 43.592,38.368 C43.0198788,37.7960515 42.8486566,36.9357685 43.1581832,36.1883456 C43.4677098,35.4409226 44.1970205,34.9535729 45.006,34.9535729 C45.8149795,34.9535729 46.5442902,35.4409226 46.8538168,36.1883456 C47.1633434,36.9357685 46.9921212,37.7960515 46.42,38.368 Z" id="Shape"/><path d="M48.021,15 C44.864,14.938 41.384,15.12 39.475,16.99 C38.5782384,17.8810069 38.0936816,19.1056273 38.138,20.369 C38.0600373,21.6119005 38.5167928,22.8289002 39.3932666,23.7135885 C40.2697404,24.5982768 41.4824264,25.066365 42.726,25 C45.4244899,25.0565985 47.8511361,23.3652997 48.732,20.814 C48.9003341,20.3224135 48.9907597,19.8075269 49,19.288 L49,16 C49.00012,15.4558134 48.5650666,15.0114279 48.021,15 Z M47,19.288 C46.9910731,19.5902336 46.9361079,19.8893385 46.837,20.175 C46.2402391,21.9206983 44.5696005,23.068729 42.726,23 C42.0143431,23.0634839 41.311628,22.8051131 40.8105918,22.2957521 C40.3095556,21.7863912 40.0627986,21.0795143 40.138,20.369 C40.0984418,19.6442692 40.3659812,18.9363968 40.875,18.419 C42.094,17.224 44.762,17 47,16.99 L47,19.288 Z" id="Shape"/><path d="M3,30 C2.44771525,30 2,30.4477153 2,31 L2,39 C2,39.5522847 2.44771525,40 3,40 C3.55228475,40 4,39.5522847 4,39 L4,36 L27,36 L27,39 C27,39.5522847 27.4477153,40 28,40 C28.5522847,40 29,39.5522847 29,39 L29,31 C29,30.4477153 28.5522847,30 28,30 C27.4477153,30 27,30.4477153 27,31 L27,34 L4,34 L4,31 C4,30.4477153 3.55228475,30 3,30 Z" id="Shape"/></g></g></svg>
