<?xml version="1.0"?>
<svg xmlns="http://www.w3.org/2000/svg" id="Layer_1" data-name="Layer 1" viewBox="0 0 512 512" width="512" height="512"><title>Focus users</title><path d="M222.66,503A213.675,213.675,0,0,0,393.538,161.058a7,7,0,1,0-11.19,8.414A197.929,197.929,0,0,1,422.32,289.34C422.32,399.433,332.753,489,222.66,489S23,399.433,23,289.34,112.567,89.68,222.66,89.68a197.938,197.938,0,0,1,119.871,39.973,7,7,0,1,0,8.414-11.189A211.841,211.841,0,0,0,222.66,75.68C104.847,75.68,9,171.527,9,289.34A213.66,213.66,0,0,0,222.66,503Z"/><path d="M326.653,158.1a7,7,0,0,0-1.541-9.78A173.01,173.01,0,0,0,222.66,115.044c-96.107,0-174.3,78.188-174.3,174.3s78.189,174.3,174.3,174.3,174.3-78.189,174.3-174.3a173.024,173.024,0,0,0-33.138-102.264,7,7,0,0,0-11.331,8.223,159.108,159.108,0,0,1,30.469,94.041c0,88.388-71.908,160.3-160.3,160.3s-160.3-71.908-160.3-160.3,71.908-160.3,160.3-160.3a159.088,159.088,0,0,1,94.214,30.6A7,7,0,0,0,326.653,158.1Z"/><path d="M496.689,74.271l-53.653-5.307-5.307-53.652a7,7,0,0,0-11.916-4.262l-71.76,71.761a7,7,0,0,0-1.842,6.647L364.3,137.8l-109.43,109.43a7,7,0,0,0,9.9,9.9L374.2,147.7l48.345,12.086a7,7,0,0,0,6.647-1.841L500.95,86.188a7,7,0,0,0-4.261-11.917ZM366.755,89.908l58.5-58.5,4.09,41.348-53.5,53.5Zm55.337,55.337-36.35-9.087,53.5-53.5,41.349,4.09Z"/><path d="M222.712,239.9a31.979,31.979,0,0,0-31.943,31.943v12.972a31.943,31.943,0,0,0,63.885,0V271.84A31.979,31.979,0,0,0,222.712,239.9Zm19.942,44.915a19.943,19.943,0,0,1-39.885,0V271.84a19.943,19.943,0,1,1,39.885,0Z"/><path d="M243.776,314.539c-3.075-.149-4.69,1.815-5.76,3.116a19.132,19.132,0,0,1-30.189-.734,6.017,6.017,0,0,0-4.975-2.433A35.093,35.093,0,0,0,178.27,325.52a31.457,31.457,0,0,0-13.03-3.707c-3.094-.2-4.722,1.811-5.7,3A16,16,0,0,1,134.3,324.2a6.006,6.006,0,0,0-4.976-2.432,31.745,31.745,0,0,0-30.754,31.541v25.549a6,6,0,0,0,6,6h63.98v6.972a6,6,0,0,0,6,6h96.325a6,6,0,0,0,6-6v-6.972h63.877a6,6,0,0,0,6-6V353.308a31.592,31.592,0,0,0-29.642-31.5c-3.086-.186-4.723,1.811-5.7,3a16,16,0,0,1-25.244-.613,6,6,0,0,0-4.976-2.432,31.242,31.242,0,0,0-14,3.689A35.157,35.157,0,0,0,243.776,314.539ZM110.569,372.857V353.308a19.7,19.7,0,0,1,16.337-19.285,28.007,28.007,0,0,0,40.373.132,19.389,19.389,0,0,1,4.271,1.426,34.651,34.651,0,0,0-3,14.087v23.189Zm154.305,12.972H180.549V349.668a23.361,23.361,0,0,1,19.834-22.945,31.143,31.143,0,0,0,45.514.135,23.228,23.228,0,0,1,18.977,22.81Zm13.9-51.811a28.006,28.006,0,0,0,40.378.136,19.582,19.582,0,0,1,15.6,19.154v19.549H276.874V349.668a34.962,34.962,0,0,0-2.989-14.16A19.213,19.213,0,0,1,278.77,334.018Z"/><path d="M327.3,296.538V285.184a28.708,28.708,0,0,0-57.416,0v11.354a28.708,28.708,0,0,0,57.416,0Zm-45.416,0V285.184a16.708,16.708,0,0,1,33.416,0v11.354a16.708,16.708,0,0,1-33.416,0Z"/><path d="M175.434,296.538V285.184a28.708,28.708,0,0,0-57.416,0v11.354a28.708,28.708,0,0,0,57.416,0Zm-45.416,0V285.184a16.708,16.708,0,1,1,33.416,0v11.354a16.708,16.708,0,0,1-33.416,0Z"/></svg>
