<svg height="496pt" viewBox="0 0 496 496" width="496pt" xmlns="http://www.w3.org/2000/svg"><path d="m217.015625 421.703125c5.570313-9.207031 9.617187-19.160156 12.097656-29.703125h18.886719c4.425781 0 8-3.574219 8-8v-32c0-4.425781-3.574219-8-8-8h-18.886719c-2.480469-10.542969-6.519531-20.496094-12.097656-29.703125l12.640625-12.640625c3.128906-3.128906 3.128906-8.183594 0-11.3125l-1.25-1.246094 53.53125-110.496094c3.773438-5.257812 6.0625-11.648437 6.0625-18.601562 0-5.921875-1.71875-11.390625-4.535156-16.152344l84.382812-84.382812c4.761719 2.816406 10.230469 4.535156 16.152344 4.535156 6.191406 0 11.921875-1.839844 16.824219-4.894531l35.328125 29.4375c-2.558594 4.601562-4.152344 9.824219-4.152344 15.457031 0 17.648438 14.351562 32 32 32s32-14.351562 32-32-14.351562-32-32-32c-6.191406 0-11.921875 1.839844-16.824219 4.894531l-35.328125-29.4375c2.558594-4.601562 4.152344-9.824219 4.152344-15.457031 0-17.648438-14.351562-32-32-32s-32 14.351562-32 32c0 5.921875 1.71875 11.390625 4.535156 16.152344l-84.382812 84.382812c-4.761719-2.816406-10.230469-4.535156-16.152344-4.535156-6.121094 0-11.785156 1.816406-16.648438 4.800781l-51.609374-45.160156c2.632812-4.640625 4.257812-9.929687 4.257812-15.640625 0-17.648438-14.351562-32-32-32s-32 14.351562-32 32 14.351562 32 32 32c6.121094 0 11.785156-1.816406 16.648438-4.800781l51.609374 45.160156c-.699218 1.226563-1.386718 2.449219-1.921874 3.777344l-74.65625 98.253906c-.769532-3.621094-3.824219-6.390625-7.679688-6.390625h-32c-4.425781 0-8 3.574219-8 8v18.886719c-10.542969 2.480469-20.496094 6.519531-29.703125 12.097656l-12.640625-12.640625c-3.128906-3.128906-8.183594-3.128906-11.3125 0l-24 24c-3.128906 3.128906-3.128906 8.183594 0 11.3125l12.640625 12.640625c-5.570313 9.207031-9.617187 19.160156-12.097656 29.703125h-18.886719c-4.425781 0-8 3.574219-8 8v32c0 4.425781 3.574219 8 8 8h18.886719c2.480469 10.542969 6.519531 20.496094 12.097656 29.703125l-12.640625 12.640625c-3.128906 3.128906-3.128906 8.183594 0 11.3125l24 24c3.128906 3.128906 8.183594 3.128906 11.3125 0l12.640625-12.640625c9.207031 5.570313 19.160156 9.617187 29.703125 12.097656v18.886719c0 4.425781 3.574219 8 8 8h32c4.425781 0 8-3.574219 8-8v-18.886719c10.542969-2.480469 20.496094-6.519531 29.703125-12.097656l12.640625 12.640625c3.128906 3.128906 8.183594 3.128906 11.3125 0l24-24c3.128906-3.128906 3.128906-8.183594 0-11.3125zm-15.886719-114.144531c-1.585937 1.585937-2.28125 3.679687-2.25 5.777344l-17.839844 36.832031c-7.472656-22.152344-28.398437-38.167969-53.039062-38.167969-2.160156 0-4.28125.152344-6.375.390625l23.230469-30.566406c12.089843 2.34375 23.320312 6.976562 33.351562 13.960937 3.167969 2.214844 7.488281 1.832032 10.226563-.90625l11.566406-11.566406 9.046875 9.046875-6.839844 14.128906zm-73.128906 20.441406c22.054688 0 40 17.945312 40 40s-17.945312 40-40 40-40-17.945312-40-40 17.945312-40 40-40zm77.65625-61.65625c-3.128906-3.128906-8.183594-3.128906-11.3125 0l-12.640625 12.640625c-8.183594-4.953125-16.984375-8.625-26.230469-11.136719l71.648438-94.296875c5.117187 10.863281 16.09375 18.449219 28.878906 18.449219.601562 0 1.160156-.144531 1.753906-.175781l-41.320312 85.296875zm274.34375-162.34375c0 8.824219-7.175781 16-16 16s-16-7.175781-16-16 7.175781-16 16-16 16 7.175781 16 16zm-96-88c8.824219 0 16 7.175781 16 16s-7.175781 16-16 16-16-7.175781-16-16 7.175781-16 16-16zm-112 144c0 8.824219-7.175781 16-16 16s-16-7.175781-16-16 7.175781-16 16-16 16 7.175781 16 16zm-128-88c0-8.824219 7.175781-16 16-16s16 7.175781 16 16-7.175781 16-16 16-16-7.175781-16-16zm57.128906 356.441406 11.558594 11.558594-12.6875 12.6875-11.558594-11.558594c-2.746094-2.746094-7.066406-3.136718-10.226562-.90625-10.648438 7.417969-22.597656 12.273438-35.535156 14.457032-3.855469.640624-6.679688 3.976562-6.679688 7.878906v17.441406h-16v-17.441406c0-3.902344-2.824219-7.238282-6.671875-7.886719-12.9375-2.175781-24.886719-7.039063-35.535156-14.457031-3.175781-2.222656-7.488281-1.832032-10.226563.90625l-11.566406 11.566406-12.6875-12.6875 11.558594-11.558594c2.746094-2.746094 3.128906-7.050781.90625-10.226562-7.417969-10.648438-12.273438-22.597656-14.457032-35.535156-.640624-3.855469-3.976562-6.679688-7.878906-6.679688h-17.441406v-16h17.441406c3.902344 0 7.238282-2.824219 7.886719-6.671875 2.175781-12.9375 7.039063-24.886719 14.457031-35.535156 2.214844-3.175781 1.832032-7.488281-.90625-10.226563l-11.566406-11.566406 12.6875-12.6875 11.558594 11.558594c2.746094 2.746094 7.050781 3.128906 10.226562.90625 10.648438-7.417969 22.597656-12.273438 35.535156-14.457032 3.855469-.640624 6.679688-3.976562 6.679688-7.878906v-17.441406h16v11.023438l-44.574219 58.664062c-11.875 10.28125-19.425781 25.417969-19.425781 42.3125 0 30.871094 25.128906 56 56 56 22.785156 0 42.398438-13.703125 51.136719-33.28125l.03125.015625 28.710937-59.261719c3.152344 6.910156 5.496094 14.183594 6.792969 21.855469.648437 3.847656 3.984375 6.671875 7.886719 6.671875h17.441406v16h-17.441406c-3.902344 0-7.238282 2.824219-7.886719 6.671875-2.175781 12.9375-7.039063 24.886719-14.457031 35.535156-2.214844 3.183594-1.832032 7.488281.914062 10.234375zm0 0"/><path d="m488 176h-48c-4.425781 0-8 3.574219-8 8v264h-16v-296c0-4.425781-3.574219-8-8-8h-48c-4.425781 0-8 3.574219-8 8v296h-16v-216c0-4.425781-3.574219-8-8-8h-48c-4.425781 0-8 3.574219-8 8v216h-24c-4.425781 0-8 3.574219-8 8v32c0 4.425781 3.574219 8 8 8h240c4.425781 0 8-3.574219 8-8v-304c0-4.425781-3.574219-8-8-8zm-8 16v16h-32v-16zm-32 32h32v224h-32zm-48-64v16h-32v-16zm-32 32h32v256h-32zm-48 48v16h-32v-16zm-32 32h32v176h-32zm192 208h-224v-16h224zm0 0"/></svg>