<?xml version="1.0" encoding="iso-8859-1"?>
<!-- Generator: Adobe Illustrator 17.1.0, SVG Export Plug-In . SVG Version: 6.00 Build 0)  -->
<!DOCTYPE svg PUBLIC "-//W3C//DTD SVG 1.1//EN" "http://www.w3.org/Graphics/SVG/1.1/DTD/svg11.dtd">
<svg version="1.1" id="Capa_1" xmlns="http://www.w3.org/2000/svg" xmlns:xlink="http://www.w3.org/1999/xlink" x="0px" y="0px"
	 viewBox="0 0 428.936 428.936" style="enable-background:new 0 0 428.936 428.936;" xml:space="preserve">
<path id="XMLID_2067_" d="M205.467,34.857V9c0-4.971,4.029-9,9-9s9,4.029,9,9v25.857c0,4.971-4.029,9-9,9
	S205.467,39.828,205.467,34.857z M386.967,114.127V292.99c0,20.045-16.309,36.354-36.354,36.354H223.467v41.983h30.435
	c4.971,0,9,4.029,9,9s-4.029,9-9,9h-78.868c-4.971,0-9-4.029-9-9s4.029-9,9-9h30.434v-41.983H78.322
	c-20.045,0-36.354-16.309-36.354-36.354V114.127c0-20.046,16.309-36.354,36.354-36.354h272.29
	C370.658,77.773,386.967,94.081,386.967,114.127z M368.967,114.127c0-10.121-8.233-18.354-18.354-18.354H78.322
	c-10.12,0-18.354,8.233-18.354,18.354v42.843h64.172c4.971,0,9,4.029,9,9s-4.029,9-9,9H59.969v57.176h64.172c4.971,0,9,4.029,9,9
	s-4.029,9-9,9H59.969v42.844c0,10.121,8.233,18.354,18.354,18.354h272.29c10.121,0,18.354-8.233,18.354-18.354v-42.844h-69.788
	c-4.971,0-9-4.029-9-9s4.029-9,9-9h69.788V174.97h-69.788c-4.971,0-9-4.029-9-9s4.029-9,9-9h69.788V114.127z M290.984,53.177
	c1.23,0.574,2.524,0.845,3.798,0.845c3.39,0,6.636-1.924,8.163-5.199l12.059-25.862c2.101-4.505,0.151-9.859-4.354-11.96
	c-4.505-2.1-9.859-0.151-11.961,4.354l-12.059,25.862C284.53,45.722,286.479,51.076,290.984,53.177z M125.989,48.823
	c1.527,3.274,4.773,5.199,8.163,5.199c1.273,0,2.567-0.271,3.797-0.845c4.505-2.101,6.455-7.455,4.354-11.96l-12.058-25.862
	c-2.102-4.505-7.459-6.454-11.96-4.354c-4.505,2.101-6.455,7.455-4.354,11.96L125.989,48.823z M301.451,410.936H127.483
	c-4.971,0-9,4.029-9,9s4.029,9,9,9h173.968c4.971,0,9-4.029,9-9S306.422,410.936,301.451,410.936z M269.923,203.558
	c0,3.187-1.686,6.136-4.431,7.754l-82.72,48.742c-4.805,2.29-7.65,0.851-9.035,0.06c-2.804-1.603-4.534-4.584-4.534-7.814v-97.482
	c0-3.229,1.73-6.212,4.534-7.814c2.806-1.603,6.253-1.58,9.035,0.06l82.72,48.741C268.237,197.421,269.923,200.371,269.923,203.558z
	 M243.194,203.558l-55.991-32.992v65.984L243.194,203.558z"/>
<g>
</g>
<g>
</g>
<g>
</g>
<g>
</g>
<g>
</g>
<g>
</g>
<g>
</g>
<g>
</g>
<g>
</g>
<g>
</g>
<g>
</g>
<g>
</g>
<g>
</g>
<g>
</g>
<g>
</g>
</svg>
