<?xml version="1.0" encoding="iso-8859-1"?>
<!-- Generator: Adobe Illustrator 19.0.0, SVG Export Plug-In . SVG Version: 6.00 Build 0)  -->
<svg version="1.1" id="Layer_1" xmlns="http://www.w3.org/2000/svg" xmlns:xlink="http://www.w3.org/1999/xlink" x="0px" y="0px"
	 viewBox="0 0 512 512" style="enable-background:new 0 0 512 512;" xml:space="preserve">
<g>
	<g>
		<path d="M374.175,170.128c0,54.922-40.972,101.929-95.304,109.341l-6.984,0.954v62.525h-17.232v-62.649l-6.88-1.029
			c-53.78-8.051-94.335-54.972-94.335-109.142c0-60.857,49.511-110.368,110.368-110.368V43.609
			c-69.763,0-126.519,56.756-126.519,126.519c0,30.468,11.087,59.928,31.219,82.955c18.337,20.974,42.984,35.339,69.997,40.934
			v48.931h-14.839v156.13h78.368v-156.13h-13.994v-48.63c27.318-5.311,52.246-19.58,70.796-40.665
			c20.308-23.084,31.492-52.747,31.492-83.525H374.175z M285.88,482.927h-46.065V359.1h46.065V482.927z"/>
	</g>
</g>
<g>
	<g>
		<path d="M256.927,110.469c-22.191,2.239-41.363,17.256-48.84,38.26l15.216,5.417c5.397-15.155,19.23-25.992,35.246-27.607
			L256.927,110.469z"/>
	</g>
</g>
<g>
	<g>
		<path d="M304.996,186.363c-6.058,17.016-22.274,28.173-40.291,27.807l-0.342,16.147c0.417,0.01,0.83,0.014,1.246,0.014
			c24.507,0,46.349-15.362,54.604-38.551L304.996,186.363z"/>
	</g>
</g>
<g>
	<g>
		<path d="M344.025,171.205c0,44.529-36.228,80.757-80.757,80.757s-80.757-36.228-80.757-80.757
			c0-44.529,36.228-80.757,80.757-80.757V74.297c-53.435,0-96.909,43.473-96.909,96.909s43.473,96.909,96.909,96.909
			s96.909-43.473,96.909-96.909H344.025z"/>
	</g>
</g>
<g>
	<g>
		<path d="M203.508,439.319v-48.454h-28.369c-0.855-2.412-1.839-4.782-2.951-7.099l20.069-20.068l-34.263-34.263l-20.068,20.069
			c-2.318-1.112-4.687-2.096-7.099-2.951v-28.369H82.372v28.37c-2.412,0.855-4.782,1.839-7.099,2.951l-20.068-20.069l-34.263,34.263
			l20.069,20.067c-1.112,2.318-2.096,4.687-2.951,7.099H9.691v48.454h28.371c0.855,2.412,1.839,4.782,2.951,7.099l-20.069,20.068
			l34.263,34.263l20.066-20.069c2.318,1.112,4.687,2.096,7.099,2.951V512h48.454h0v-28.37c2.412-0.855,4.782-1.839,7.099-2.951
			l20.068,20.069l34.263-34.263l-20.069-20.068c1.112-2.318,2.096-4.687,2.951-7.099H203.508z M169.413,466.485l-11.421,11.421
			l-17.301-17.304l-5.391,3.186c-4.585,2.709-9.483,4.745-14.561,6.051l-6.063,1.56v24.448H98.524h-0.001V471.4l-6.063-1.56
			c-5.077-1.306-9.975-3.341-14.561-6.051l-5.391-3.186l-17.301,17.304l-11.421-11.421l17.304-17.301l-3.186-5.391
			c-2.709-4.585-4.745-9.483-6.051-14.561l-1.56-6.063H25.842v-16.151H50.29l1.562-6.064c1.306-5.077,3.341-9.975,6.051-14.561
			l3.186-5.391l-17.304-17.301l11.421-11.421l17.301,17.304l5.391-3.186c4.585-2.709,9.483-4.745,14.561-6.051l6.063-1.56v-24.448
			h16.151v24.45l6.063,1.56c5.077,1.306,9.975,3.341,14.561,6.051l5.391,3.186l17.301-17.304l11.421,11.421l-17.304,17.301
			l3.186,5.391c2.709,4.585,4.745,9.483,6.051,14.561l1.56,6.063h24.448v16.151h-24.449l-1.56,6.063
			c-1.306,5.077-3.341,9.975-6.051,14.561l-3.186,5.391L169.413,466.485z"/>
	</g>
</g>
<g>
	<g>
		<path d="M106.599,374.713c-22.265,0-40.379,18.113-40.379,40.379c0,22.265,18.113,40.379,40.379,40.379
			s40.379-18.113,40.379-40.379C146.978,392.826,128.865,374.713,106.599,374.713z M106.599,439.319
			c-13.358,0-24.227-10.869-24.227-24.227c0-13.358,10.869-24.227,24.227-24.227c13.358,0,24.227,10.869,24.227,24.227
			C130.826,428.45,119.958,439.319,106.599,439.319z"/>
	</g>
</g>
<g>
	<g>
		<path d="M436.088,98.866V57.263H413.22c-0.449-1.187-0.936-2.36-1.462-3.518l16.174-16.174L398.516,8.155l-16.174,16.174
			c-1.159-0.526-2.331-1.013-3.518-1.462V0h-41.603v22.868c-1.187,0.449-2.36,0.936-3.518,1.462L317.529,8.156l-29.416,29.416
			l16.174,16.174c-0.527,1.159-1.013,2.331-1.462,3.518h-22.867v41.603h22.867c0.449,1.187,0.936,2.36,1.462,3.518l-16.174,16.174
			l29.416,29.416l16.174-16.174c1.159,0.527,2.331,1.013,3.518,1.462v22.867h41.603h0.001v-22.868
			c1.187-0.449,2.36-0.936,3.518-1.462l16.174,16.174l29.416-29.416l-16.174-16.174c0.527-1.159,1.013-2.331,1.462-3.518H436.088z
			 M405.091,118.558l-6.575,6.575l-13.359-13.359l-5.391,3.185c-3.473,2.052-7.184,3.594-11.028,4.584l-6.063,1.56v18.877h-9.3
			h-0.001v-18.878l-6.063-1.56c-3.844-0.99-7.555-2.531-11.028-4.584l-5.391-3.185l-13.359,13.359l-6.575-6.575l13.359-13.359
			l-3.185-5.391c-2.052-3.473-3.594-7.184-4.584-11.028l-1.56-6.063h-18.877v-9.3h18.878l1.56-6.063
			c0.99-3.844,2.531-7.555,4.584-11.028l3.185-5.391l-13.359-13.359l6.575-6.575l13.359,13.359l5.391-3.185
			c3.473-2.052,7.184-3.594,11.028-4.584l6.063-1.56V16.151h9.3v18.878l6.063,1.56c3.844,0.99,7.555,2.531,11.028,4.584l5.391,3.185
			l13.359-13.359l6.575,6.575l-13.359,13.359l3.185,5.391c2.052,3.473,3.594,7.184,4.584,11.028l1.56,6.063h18.877v9.3H401.06
			l-1.56,6.063c-0.99,3.844-2.531,7.555-4.584,11.028l-3.185,5.391L405.091,118.558z"/>
	</g>
</g>
<g>
	<g>
		<path d="M358.023,51.146c-14.843,0-26.919,12.076-26.919,26.919c0,14.843,12.076,26.919,26.919,26.919
			s26.919-12.076,26.919-26.919C384.942,63.222,372.866,51.146,358.023,51.146z M358.023,88.833c-5.937,0-10.768-4.83-10.768-10.768
			s4.83-10.768,10.768-10.768s10.768,4.83,10.768,10.768S363.96,88.833,358.023,88.833z"/>
	</g>
</g>
<g>
	<g>
		<g>
			<rect x="453.855" y="169.59" width="16.151" height="16.151"/>
			<rect x="421.552" y="169.59" width="16.151" height="16.151"/>
			<rect x="486.158" y="169.59" width="16.151" height="16.151"/>
		</g>
	</g>
</g>
<g>
	<g>
		<g>
			<rect x="59.76" y="169.59" width="16.151" height="16.151"/>
			<rect x="27.457" y="169.59" width="16.151" height="16.151"/>
			<rect x="92.063" y="169.59" width="16.151" height="16.151"/>
		</g>
	</g>
</g>
<g>
</g>
<g>
</g>
<g>
</g>
<g>
</g>
<g>
</g>
<g>
</g>
<g>
</g>
<g>
</g>
<g>
</g>
<g>
</g>
<g>
</g>
<g>
</g>
<g>
</g>
<g>
</g>
<g>
</g>
</svg>
