<svg height="480pt" viewBox="0 0 480 480" width="480pt" xmlns="http://www.w3.org/2000/svg"><path d="m56 40c-8.835938 0-16 7.164062-16 16v88c0 4.417969 3.582031 8 8 8s8-3.582031 8-8v-88h48c4.417969 0 8-3.582031 8-8s-3.582031-8-8-8zm0 0"/><path d="m432 104c4.417969 0 8-3.582031 8-8v-40c0-8.835938-7.164062-16-16-16h-88c-4.417969 0-8 3.582031-8 8s3.582031 8 8 8h88v40c0 4.417969 3.582031 8 8 8zm0 0"/><path d="m440 0h-400c-22.082031.0273438-39.9726562 17.917969-40 40v208c.0273438 22.082031 17.917969 39.972656 40 40v24c0 13.253906 10.746094 24 24 24s24-10.746094 24-24v-24h33.304688c4.417968 0 8-3.582031 8-8s-3.582032-8-8-8h-81.304688c-13.253906 0-24-10.746094-24-24v-8h88c4.417969 0 8-3.582031 8-8s-3.582031-8-8-8h-88v-184c0-13.253906 10.746094-24 24-24h400c13.253906 0 24 10.746094 24 24v184h-88c-4.417969 0-8 3.582031-8 8s3.582031 8 8 8h88v8c0 13.253906-10.746094 24-24 24h-81.3125c-4.417969 0-8 3.582031-8 8s3.582031 8 8 8h33.3125v24c0 13.253906 10.746094 24 24 24s24-10.746094 24-24v-24c22.082031-.027344 39.972656-17.917969 40-40v-208c-.027344-22.082031-17.917969-39.9726562-40-40zm-368 288v24c0 4.417969-3.582031 8-8 8s-8-3.582031-8-8v-24zm352 24c0 4.417969-3.582031 8-8 8s-8-3.582031-8-8v-24h16zm0 0"/><path d="m392 416h-24v-40c-.042969-39.746094-32.253906-71.957031-72-72h-8.113281c6.988281-5.304688 13.066406-11.710938 17.984375-18.976562 22.753906-7.683594 38.089844-29.007813 38.128906-53.023438v-64c-.039062-30.910156-25.089844-55.960938-56-56h-144c-4.417969 0-8 3.582031-8 8v112c.042969 24.015625 15.371094 45.335938 38.121094 53.023438 4.917968 7.265624 10.992187 13.671874 17.984375 18.976562h-8.105469c-39.746094.042969-71.957031 32.253906-72 72v40h-24c-22.082031.027344-39.972656 17.917969-40 40v16c0 4.417969 3.582031 8 8 8s8-3.582031 8-8v-16c0-13.253906 10.746094-24 24-24h120c4.417969 0 8-3.582031 8-8s-3.582031-8-8-8h-24v-24c0-4.417969-3.582031-8-8-8h-48v-8c.039062-30.910156 25.089844-55.960938 56-56h112c30.910156.039062 55.960938 25.089844 56 56v8h-48c-4.417969 0-8 3.582031-8 8v24h-24c-4.417969 0-8 3.582031-8 8s3.582031 8 8 8h120c13.253906 0 24 10.746094 24 24v16c0 4.417969 3.582031 8 8 8s8-3.582031 8-8v-16c-.027344-22.082031-17.917969-39.972656-40-40zm-224-16v16h-40v-16zm-16-168v-104h24v48c0 4.417969 3.582031 8 8 8s8-3.582031 8-8v-48h24v48c0 4.417969 3.582031 8 8 8s8-3.582031 8-8v-48h24v48c0 4.417969 3.582031 8 8 8s8-3.582031 8-8v-48h16c2.6875-.003906 5.367188.265625 8 .800781v47.199219c0 4.417969 3.582031 8 8 8s8-3.582031 8-8v-39.792969c10.035156 7.492188 15.964844 19.269531 16 31.792969v64c-.050781 18.453125-12.714844 34.472656-30.65625 38.785156-.800781.199219-1.65625.375-2.488281.519532-2.261719.429687-4.554688.664062-6.855469.695312h-96c-2.304688-.03125-4.601562-.265625-6.863281-.695312-.800781-.144532-1.648438-.320313-2.472657-.519532-17.945312-4.308594-30.613281-20.332031-30.664062-38.785156zm45.710938 56h84.570312c-24.152344 21.332031-60.417969 21.332031-84.570312 0zm114.289062 112h40v16h-40zm0 0"/></svg>