<?xml version="1.0" encoding="UTF-8" standalone="no"?>
<svg
   xmlns:dc="http://purl.org/dc/elements/1.1/"
   xmlns:cc="http://creativecommons.org/ns#"
   xmlns:rdf="http://www.w3.org/1999/02/22-rdf-syntax-ns#"
   xmlns:svg="http://www.w3.org/2000/svg"
   xmlns="http://www.w3.org/2000/svg"
   id="svg8"
   version="1.1"
   fill="#fff"
   viewBox="0 0 601.14471 139.6992"
   height="139"
   width="601">
  <defs
     id="defs2" />
  <metadata
     id="metadata5">
    <rdf:RDF>
      <cc:Work
         rdf:about="">
        <dc:format>image/svg+xml</dc:format>
        <dc:type
           rdf:resource="http://purl.org/dc/dcmitype/StillImage" />
        <dc:title></dc:title>
      </cc:Work>
    </rdf:RDF>
  </metadata>
  <g
     transform="translate(186.42355,-83.519444)"
     id="layer1">
    <g
       transform="matrix(0.26458333,0,0,0.26458333,-264.31,-221.63139)"
       id="g888">
      <g
         id="g829">
	<path
   d="m 647.949,1469.397 v -315.17 h 237.727 v 61.683 h -168.84 v 63.934 h 148.579 v 61.683 h -148.58 v 66.187 h 171.091 v 61.684 H 647.949 Z"
   id="path815" />

	<path
   d="m 949.609,1469.397 v -315.17 h 74.74 l 82.844,133.271 82.844,-133.271 h 74.741 v 315.17 h -68.887 v -205.762 l -88.698,134.623 h -1.801 l -87.797,-133.271 v 204.41 z"
   id="path817" />

	<path
   d="m 1343.568,1469.397 v -315.17 h 69.338 v 315.17 z"
   id="path819" />

	<path
   d="m 1574.993,1471.647 -107.607,-317.42 h 74.288 l 65.286,213.414 70.688,-214.315 h 59.432 l 70.688,214.315 65.282,-213.414 h 72.493 l -107.61,317.42 h -60.33 l -71.138,-206.211 -71.14,206.211 z"
   id="path821" />

	<path
   d="m 1996.866,1469.397 v -315.17 h 237.726 v 61.683 h -168.84 v 63.934 h 148.578 v 61.683 h -148.578 v 66.187 h 171.092 v 61.684 h -239.978 z"
   id="path823" />

	<path
   d="m 2298.526,1469.397 v -315.17 h 146.328 c 36.316,0 63.781,9.308 82.396,27.915 14.407,14.407 21.611,32.571 21.611,54.479 0,29.716 -13.81,52.381 -41.423,67.985 19.508,7.507 34.219,17.335 44.122,29.491 9.906,12.156 14.857,28.443 14.857,48.852 0,28.217 -10.509,49.682 -31.516,64.383 -21.015,14.711 -49.829,22.064 -86.446,22.064 h -149.929 z m 67.538,-187.751 h 63.934 c 33.316,0 49.977,-11.404 49.977,-34.218 0,-10.504 -3.906,-18.531 -11.709,-24.088 -7.807,-5.551 -19.064,-8.33 -33.766,-8.33 h -68.436 z m 0,126.968 h 82.393 c 32.714,0 49.076,-11.707 49.076,-35.119 0,-22.808 -17.109,-34.219 -51.327,-34.219 h -80.142 z"
   id="path825" />

	<path
   d="m 539.442,1199.026 c -31.222,-29.863 -71.441,-44.798 -120.666,-44.798 H 295.862 v 190.765 h 69.336 v -128.182 h 53.578 c 28.21,0 51.103,8.857 68.662,26.564 17.56,17.715 26.339,40.523 26.339,68.437 0,28.218 -8.709,51.102 -26.113,68.662 -17.412,17.559 -40.375,26.338 -68.888,26.338 h -53.578 v -0.654 h -69.336 v 63.24 h 122.915 c 48.922,0 89.071,-15.008 120.44,-45.025 31.362,-30.012 47.051,-67.536 47.051,-112.561 0,-45.319 -15.612,-82.916 -46.826,-112.786 z"
   id="path827" />

</g>
      <g
         id="g857">
	<path
   d="m 294.374,1678.81 v -146.59 h 10.89 v 146.59 z"
   id="path831" />

	<path
   d="m 387.979,1678.81 v -146.59 h 10.263 l 101.146,127.535 V 1532.22 h 10.471 v 146.59 h -8.167 L 398.45,1548.556 v 130.254 z"
   id="path833" />

	<path
   d="M 631.736,1678.81 V 1542.273 H 580.64 v -10.053 h 113.084 v 10.053 h -51.097 v 136.537 z"
   id="path835" />

	<path
   d="m 764.505,1678.81 v -146.59 h 104.289 v 10.053 h -93.399 v 57.59 h 83.976 v 10.051 h -83.976 v 58.846 h 94.446 v 10.051 H 764.505 Z"
   id="path837" />

	<path
   d="m 942.506,1678.81 v -146.59 h 61.568 c 17.869,0 31.622,4.818 41.255,14.451 7.398,7.402 11.098,16.615 11.098,27.643 0,11.867 -3.91,21.359 -11.727,28.48 -7.82,7.119 -18.219,11.59 -31.202,13.402 l 48.375,62.613 h -13.821 l -46.7,-60.73 h -47.956 v 60.73 h -10.89 z m 10.89,-70.573 h 49.421 c 12.565,0 22.827,-3.035 30.785,-9.107 7.958,-6.074 11.937,-14.346 11.937,-24.816 0,-9.91 -3.702,-17.729 -11.1,-23.455 -7.402,-5.723 -17.732,-8.586 -30.993,-8.586 h -50.05 z"
   id="path839" />

	<path
   d="m 1131.606,1678.81 v -146.59 h 10.262 l 101.146,127.535 V 1532.22 h 10.47 v 146.59 h -8.167 l -103.241,-130.254 v 130.254 z"
   id="path841" />

	<path
   d="m 1322.172,1678.81 68.27,-147.635 h 10.471 l 68.27,147.635 h -11.938 l -18.636,-41.045 h -86.489 l -18.639,41.045 z m 34.554,-50.885 h 77.275 l -38.534,-84.814 z"
   id="path843" />

	<path
   d="m 1578.495,1678.81 v -136.537 h -51.099 v -10.053 h 113.085 v 10.053 h -51.097 v 136.537 z"
   id="path845" />

	<path
   d="m 1712.728,1678.81 v -146.59 h 10.891 v 146.59 z"
   id="path847" />

	<path
   d="m 1926.54,1658.915 c -13.826,14.941 -31.556,22.408 -53.192,22.408 -21.643,0 -39.301,-7.434 -52.983,-22.303 -13.684,-14.867 -20.522,-32.701 -20.522,-53.504 0,-20.662 6.91,-38.461 20.731,-53.402 13.82,-14.938 31.551,-22.406 53.193,-22.406 21.637,0 39.296,7.434 52.979,22.303 13.683,14.869 20.525,32.703 20.525,53.506 0,20.662 -6.912,38.462 -20.731,53.398 z m -97.483,-6.701 c 11.936,12.848 26.836,19.27 44.71,19.27 17.868,0 32.7,-6.352 44.501,-19.059 11.794,-12.703 17.694,-28.34 17.694,-46.908 0,-18.289 -5.969,-33.854 -17.904,-46.699 -11.938,-12.844 -26.842,-19.268 -44.71,-19.268 -17.875,0 -32.707,6.355 -44.502,19.057 -11.799,12.705 -17.693,28.344 -17.693,46.91 -10e-4,18.291 5.965,33.855 17.904,46.697 z"
   id="path849" />

	<path
   d="m 2022.028,1678.81 v -146.59 h 10.261 l 101.146,127.535 V 1532.22 h 10.471 v 146.59 h -8.167 l -103.24,-130.254 v 130.254 z"
   id="path851" />

	<path
   d="m 2212.593,1678.81 68.27,-147.635 h 10.47 l 68.27,147.635 h -11.935 l -18.639,-41.045 h -86.488 l -18.639,41.045 z m 34.556,-50.885 h 77.271 l -38.533,-84.814 z"
   id="path853" />

	<path
   d="m 2428.29,1678.81 v -146.59 h 10.891 v 136.539 h 86.065 v 10.051 z"
   id="path855" />

</g>
    </g>
  </g>
</svg>
