<?xml version="1.0" encoding="UTF-8" standalone="no"?>
<svg
   xmlns:dc="http://purl.org/dc/elements/1.1/"
   xmlns:cc="http://creativecommons.org/ns#"
   xmlns:rdf="http://www.w3.org/1999/02/22-rdf-syntax-ns#"
   xmlns:svg="http://www.w3.org/2000/svg"
   xmlns="http://www.w3.org/2000/svg"
   xml:space="preserve"
   enable-background="new 0 0 595.275 595.275"
   viewBox="0 0 388.77791 227.55799"
   height="227.558"
   width="388.77792"
   fill="#fff"
   y="0px"
   x="0px"
   id="Слой_1"
   version="1.1"><metadata
   id="metadata31"><rdf:RDF><cc:Work
       rdf:about=""><dc:format>image/svg+xml</dc:format><dc:type
         rdf:resource="http://purl.org/dc/dcmitype/StillImage" /><dc:title></dc:title></cc:Work></rdf:RDF></metadata><defs
   id="defs29" />
<g
   transform="translate(-99.80353,-181.326)"
   id="g16">
   <path
   id="path2"
   d="m 426.653,377.946 c -0.073,-0.303 -0.258,-0.498 -0.557,-0.586 -0.441,-0.521 -0.882,-1.041 -1.322,-1.562 -0.525,-0.521 -0.832,-1.25 -1.534,-1.6 -0.908,-1.336 -2.043,-2.473 -3.164,-3.621 -0.586,-0.639 -1.171,-1.277 -1.757,-1.916 v 0 c -0.271,-0.684 -0.913,-1.022 -1.401,-1.503 -0.291,-0.775 -0.846,-1.325 -1.521,-1.771 0,0 0,0 0,10e-4 0,-10e-4 0,-10e-4 0,-10e-4 -0.111,-0.106 -0.234,-0.205 -0.334,-0.321 -4.125,-4.823 -8.342,-9.563 -12.688,-14.189 -0.663,-0.706 -0.5,-1.343 0.055,-2.022 0.846,-1.036 1.845,-1.952 2.511,-3.133 0.095,0.013 0.161,-0.025 0.199,-0.112 2.914,-3.383 5.827,-6.766 8.741,-10.148 0.832,-0.858 1.785,-1.622 2.229,-2.792 10e-4,0 0.002,0 0.002,-0.001 0,-10e-4 0,-0.002 0,-0.004 0,0.002 10e-4,0.003 0.002,0.005 0.367,-0.065 0.547,-0.331 0.686,-0.641 v 0 c 3.262,-3.72 6.524,-7.438 9.78,-11.163 0.266,-0.304 0.605,-0.646 0.384,-1.093 -0.193,-0.389 -0.629,-0.294 -0.979,-0.292 -3.107,0.014 -6.216,0.038 -9.323,0.059 v 0 0 c -0.715,-0.027 -1.445,0.03 -2.141,-0.101 -1.24,-0.234 -2.084,0.169 -2.593,1.31 -0.835,0.729 -1.513,1.592 -2.113,2.518 l -0.002,0.004 c -0.523,0.617 -1.047,1.235 -1.57,1.853 v 0 l -0.007,-0.014 v 0 c -0.581,0.58 -1.262,1.075 -1.6,1.864 v 0 c -0.563,0.894 -1.571,1.433 -1.953,2.468 v 10e-4 c -0.372,0.412 -0.744,0.825 -1.115,1.237 v 0 c -3.135,3.424 -6.085,7.003 -9.021,10.595 -0.333,0.418 -0.666,0.837 -0.999,1.255 v 0 c -1.188,1.388 -2.381,2.772 -3.561,4.167 -0.272,0.321 -0.579,0.716 -0.989,0.628 -0.546,-0.118 -0.308,-0.68 -0.338,-1.054 -0.049,-0.612 -0.034,-1.229 -0.046,-1.845 v 0 c -0.002,-7.881 -0.003,-15.762 -0.005,-23.644 0.282,-1.266 -0.651,-1.465 -1.463,-1.404 -2.797,0.208 -5.595,0.136 -8.384,0.054 -1.585,-0.046 -1.994,0.414 -1.988,1.987 0.058,16.021 0.033,32.044 0.038,48.065 0,2.229 0.033,4.456 0.052,6.685 0,0.208 0.001,0.416 0.001,0.624 -0.132,2.496 -0.132,2.495 2.3,2.491 1.97,-0.002 3.94,0 5.91,0 3.722,0 3.722,0 3.534,-3.74 0.001,-3.316 0.002,-6.634 0.003,-9.95 v 0 c 0.003,-1.574 -0.111,-3.183 1.287,-4.343 0.508,-0.111 0.65,-0.603 0.957,-0.923 v 0 c 0.391,-0.048 0.62,-0.234 0.563,-0.663 0.214,-0.278 0.392,-0.598 0.65,-0.827 1.522,-1.35 1.526,-1.341 2.875,0.188 2.854,3.236 5.713,6.47 8.569,9.704 0.333,0.414 0.665,0.827 0.998,1.24 0.808,0.937 1.616,1.873 2.424,2.81 h 10e-4 c 0.408,0.936 1.285,1.468 1.905,2.221 v 0 c 0.979,1.184 1.964,2.364 2.937,3.554 0.382,0.468 0.845,0.732 1.461,0.731 4.331,-10e-4 8.661,0.002 12.992,0.008 0.375,0.001 0.782,-0.016 0.945,-0.381 0.211,-0.477 -0.142,-0.754 -0.523,-0.967 z m -26.241,-42.177 c 0.021,-0.019 0.041,-0.039 0.063,-0.059 0,0.002 -0.001,0.003 -0.001,0.004 -0.022,0.017 -0.04,0.037 -0.062,0.055 0,10e-4 0,10e-4 0,0 z m 0.062,-0.052 c 0,0 0,-10e-4 0,-0.002 0.002,-10e-4 0.004,-0.002 0.006,-0.002 -0.002,10e-4 -0.004,0.003 -0.006,0.004 z" />
   <path
   id="path4"
   d="m 478.781,348.13 c -2.099,-1.085 -4.273,-1.96 -6.607,-2.396 -2.759,-0.814 -5.521,-1.623 -8.388,-1.983 v 0 0 c -2.083,-0.6 -4.167,-1.198 -6.25,-1.797 -0.47,-0.208 -0.934,-0.427 -1.408,-0.621 -4.524,-1.856 -5.754,-5.505 -3.22,-9.566 1.404,-1.322 3.034,-2.15 4.91,-2.683 2.811,-0.798 5.607,-0.456 8.421,-0.29 v 0 0 c 1.034,0.235 2.068,0.471 3.103,0.706 1.35,0.427 2.698,0.854 4.048,1.28 v 0 c 2.064,1.219 4.291,2.152 6.255,3.551 0.331,0.236 0.654,0.183 0.928,-0.185 1.153,-1.549 2.326,-3.084 3.492,-4.624 0.859,-0.708 1.525,-1.571 2.048,-2.549 v 0 0 c 0.174,-0.307 0.227,-0.609 -0.031,-0.9 -0.725,-0.627 -1.55,-1.093 -2.409,-1.506 v 10e-4 c -1.703,-1.179 -3.558,-2.028 -5.496,-2.772 -8.946,-3.439 -17.993,-4.164 -27.124,-0.934 -2.763,0.979 -5.313,2.508 -7.221,4.871 v 0 c -5.893,5.346 -5.927,17.231 0.871,21.857 0,0 0.01,0.004 0.011,0.004 v 0 c 3.161,2.734 7.003,3.948 10.959,4.904 0.159,0.02 0.317,0.04 0.476,0.06 2.416,1.09 5.055,1.271 7.593,1.863 v 0 0 0 0 c 2.402,0.854 4.947,1.231 7.315,2.211 3.935,1.627 5.813,3.272 5.22,7.726 -0.061,0.288 -0.121,0.576 -0.183,0.864 -0.556,0.461 -0.716,1.186 -1.229,1.715 -1.724,1.772 -3.877,2.541 -6.218,2.964 -0.087,-0.039 -0.157,-0.02 -0.212,0.059 -2.389,0.347 -4.78,0.183 -7.172,0.058 -0.49,-0.035 -0.979,-0.07 -1.47,-0.105 v 0 0 c -3.206,-0.776 -6.319,-1.826 -9.339,-3.156 -0.038,0.03 -0.058,0.068 -0.083,0.105 -10e-4,-0.003 -0.003,-0.005 -0.004,-0.007 l 0.087,-0.099 c -0.663,-0.53 -1.401,-0.929 -2.193,-1.23 -0.725,-0.776 -1.717,-1.157 -2.574,-1.736 v 0 0 c -0.028,-0.088 -0.089,-0.125 -0.18,-0.112 -0.824,-1.003 -1.505,-1.298 -2.549,-0.064 -1.75,2.069 -3.701,3.971 -5.601,5.911 -0.416,0.426 -0.529,0.729 -0.022,1.118 3.474,2.672 7.128,5.012 11.406,6.204 0,-10e-4 0.001,-10e-4 0.001,-10e-4 0,0 0,0 -0.001,10e-4 0.001,0 0.011,0 0.012,0.001 v 0 c 0.586,0.693 1.516,0.561 2.237,0.929 0.358,0.297 0.787,0.291 1.217,0.279 0.584,0.365 1.229,0.515 1.91,0.539 0.186,0.031 0.371,0.063 0.557,0.094 8.287,1.858 16.442,1.903 24.292,-1.861 3.333,-1.599 6.071,-3.926 7.743,-7.257 3.839,-7.656 2.049,-17.457 -7.928,-21.441 z m -13.15,-19.883 c 0,10e-4 -10e-4,0.002 -10e-4,0.003 -10e-4,-10e-4 -0.002,-0.002 -0.002,-0.003 0.001,0 0.002,0 0.003,0 z" />
   <path
   id="path6"
   d="m 216.622,370.55 c 0.03,-2.028 -0.091,-2.201 -2.149,-2.2 -10.205,0.004 -20.41,0.011 -30.614,0.018 -2.207,0.002 -2.207,0.003 -2.331,-2.155 0.013,-0.051 0.037,-0.101 0.037,-0.151 0.012,-15.09 0.016,-30.18 0.047,-45.27 0.002,-1.041 -0.422,-1.345 -1.398,-1.328 -2.541,0.044 -5.085,0.092 -7.622,-0.012 -1.324,-0.055 -1.659,0.396 -1.657,1.662 0.031,17.893 0.018,35.784 0.018,53.677 0,0.153 0.041,0.307 0.062,0.46 -0.017,0.62 -0.044,1.24 -0.05,1.86 -0.021,2.175 -0.019,2.177 2.213,2.177 13.831,0 27.662,0 41.493,-0.002 1.804,0 2.02,-0.24 1.996,-2.057 -0.032,-2.226 -0.078,-4.454 -0.045,-6.679 z" />
   <path
   id="path8"
   d="m 292.669,375.546 v 0 c 0.029,-0.565 0.084,-1.132 0.084,-1.697 0.005,-17.123 0.004,-34.245 0.001,-51.368 0,-0.567 -0.041,-1.135 -0.063,-1.701 0.26,-1.15 -0.428,-1.307 -1.326,-1.302 -2.585,0.014 -5.172,0.051 -7.756,-0.013 -1.068,-0.026 -1.79,0.324 -2.239,1.272 v 0 c -0.826,0.931 -1.653,1.86 -2.479,2.791 -2.361,2.593 -4.722,5.187 -7.083,7.78 -0.727,0.839 -1.757,1.42 -2.153,2.54 -0.909,0.65 -1.508,1.585 -2.214,2.42 v 0 c -0.408,0.437 -0.816,0.873 -1.224,1.309 -1.039,1.131 -2.078,2.261 -3.116,3.391 -1.564,0.624 -1.798,-1.122 -2.769,-1.556 -0.32,-0.401 -0.639,-0.803 -0.959,-1.204 -0.697,-0.744 -1.271,-1.613 -2.178,-2.146 v 0 0 c -0.728,-0.932 -1.451,-1.869 -2.456,-2.532 -0.577,-1.17 -1.583,-1.96 -2.501,-2.827 v 0 0 c -3.334,-3.575 -6.672,-7.148 -9.999,-10.731 -0.349,-0.376 -0.75,-0.502 -1.241,-0.495 -2.066,0.031 -4.132,0.051 -6.198,0.074 -0.256,-0.033 -0.512,-0.07 -0.768,-0.102 -2.409,-0.289 -2.669,-0.06 -2.669,2.351 0,15.963 0,31.925 0,47.888 0,12.438 0.022,24.876 -0.024,37.314 -0.005,1.383 0.293,1.953 1.799,1.875 2.43,-0.125 4.875,-0.122 7.304,-0.003 1.537,0.075 1.914,-0.479 1.911,-1.947 -0.045,-18.347 -0.032,-36.692 -0.038,-55.039 -0.001,-2.072 -0.035,-4.144 -0.053,-6.216 0.288,-1.987 -0.265,-4.049 0.473,-6.172 0.711,0.652 1.331,1.179 1.904,1.752 3.15,3.154 6.289,6.319 9.431,9.479 0.189,0.19 0.379,0.38 0.569,0.57 v 0 c 0.251,0.608 0.791,0.938 1.275,1.321 0.51,0.691 1.097,1.308 1.792,1.816 v 0 c 0.353,0.396 0.706,0.793 1.058,1.189 0.425,0.494 0.849,0.989 1.275,1.481 1.004,1.161 3.022,1.365 4.384,0.504 0.076,-0.028 0.149,-0.069 0.219,-0.132 l 0.017,-0.016 c 0.771,-0.401 1.254,-1.076 1.696,-1.789 v 0 c 0.59,-0.613 1.181,-1.227 1.771,-1.84 0.41,-0.436 0.819,-0.87 1.229,-1.305 0.411,-0.42 0.822,-0.839 1.233,-1.258 0.313,-0.308 0.626,-0.615 0.939,-0.922 v 0 c 0.823,-0.949 1.986,-1.591 2.523,-2.797 1.194,-0.99 2.313,-2.048 3.083,-3.42 0.191,-0.135 0.383,-0.27 0.574,-0.404 0.73,-0.423 1.201,-1.098 1.693,-1.751 v 0 c 0.531,-0.242 0.814,-0.751 1.224,-1.12 0.308,-0.276 0.7,-0.936 1.209,-0.17 -0.002,0.623 -0.004,1.247 -0.006,1.871 -0.015,11.844 -0.023,23.687 -0.058,35.53 -0.003,0.997 0.454,1.218 1.333,1.201 2.068,-0.037 4.138,-0.018 6.206,-0.007 3.648,0.024 3.648,0.029 3.361,-3.737 z m -25.21,-37.965 c 0.004,0 0.009,0 0.014,0 v 10e-4 0 -10e-4 0 c 0,0 10e-4,0 10e-4,10e-4 0,0 0,0 -10e-4,0 10e-4,0.005 10e-4,0.01 0.002,0.015 -0.004,-0.005 -0.01,-0.011 -0.016,-0.016 z m 5.69,10.081 c 0.004,0.004 0.009,0.007 0.014,0.011 0.011,0.025 0.017,0.049 0.02,0.071 -0.008,-0.026 -0.02,-0.054 -0.034,-0.082 z" />
   <path
   id="path10"
   d="m 358.27,339.07 c -0.01,-3.176 -0.616,-6.258 -2.29,-9.039 -0.002,10e-4 -0.004,0.002 -0.006,0.004 0.002,-0.003 0.004,-0.004 0.005,-0.007 -0.688,-1.576 -1.709,-2.93 -2.88,-4.168 -3.313,-3.49 -7.465,-5.416 -12.121,-6.31 -3.149,-0.599 -6.327,-0.704 -9.5,-0.079 -0.001,0 -0.003,0 -0.005,0 -0.373,0.034 -0.746,0.069 -1.119,0.104 0.002,0.002 0.005,0.003 0.007,0.005 -10e-4,-10e-4 -0.003,-10e-4 -0.005,-0.003 -1.67,0.028 -3.18,0.622 -4.672,1.277 0,0.002 -0.001,0.004 -0.002,0.006 0,-0.002 0,-0.004 -0.001,-0.007 -0.954,0.126 -1.773,0.541 -2.495,1.164 0.001,0 0.003,0 0.005,0 -10e-4,10e-4 -0.003,10e-4 -0.005,0.002 -3.751,1.771 -6.404,4.606 -8.107,8.357 0,0.001 0,0.003 0,0.004 -0.293,0.386 -0.689,0.723 -0.595,1.287 0.001,0 0.002,0 0.003,0 -0.001,0.001 -0.001,0.002 -0.002,0.002 -0.755,1.771 -1.216,3.618 -1.249,5.539 -0.066,4.146 -0.083,8.291 -0.089,12.437 -0.006,9.273 0.028,18.552 -0.017,27.825 -0.006,1.427 0.433,1.903 1.876,1.843 2.586,-0.105 5.178,-0.012 7.77,-0.045 0.488,-0.005 1.21,0.345 1.376,-0.555 0.001,-0.003 0.001,-0.006 0.001,-0.01 0.412,-1.093 0.2,-2.243 0.218,-3.354 0.067,-4.108 0.277,-8.224 -0.206,-12.323 0,-0.012 -0.001,-0.023 -0.002,-0.035 0.006,-0.854 0.804,-0.777 1.276,-1.076 v 0 0 c 0,0 0,-0.001 10e-4,-0.001 0.394,-0.005 0.787,-0.011 1.176,-0.021 0.001,-10e-4 0.002,-10e-4 0.003,-0.002 0,10e-4 -0.001,0.002 -0.001,0.003 0.243,0.076 0.486,0.219 0.729,0.22 5.115,0.013 10.229,0.011 15.345,0.01 0.462,0 0.938,0.066 1.351,-0.23 v 0 0 c 1.026,0.117 2.053,0.234 3.079,0.351 v 0 c 0.016,4.433 0.031,8.866 0.047,13.299 0,0.001 -0.002,0.001 -0.002,0.002 -0.022,0.877 -0.045,1.754 -0.072,2.625 -0.028,0.854 0.35,1.16 1.221,1.144 3.041,-0.062 6.076,-0.056 9.117,-0.078 0,10e-4 -10e-4,0.002 -10e-4,0.003 0.9,-0.075 0.838,-0.737 0.838,-1.368 0.004,-12.934 0.038,-25.868 0,-38.802 z m -11.171,11.508 c -7.27,0.339 -14.545,0.056 -21.82,0.161 -0.711,0.012 -0.866,-0.327 -0.844,-0.949 0.145,-4.483 -0.294,-8.974 0.283,-13.446 0.555,-0.927 1.104,-1.854 1.659,-2.774 l 0.949,-0.933 c 3.102,-2.458 6.754,-2.697 10.488,-2.559 0.194,0.017 0.389,0.033 0.583,0.056 1.771,0.693 3.612,1.221 5.122,2.464 2.553,2.104 3.457,4.934 3.641,8.097 -0.022,3.29 -0.039,6.587 -0.061,9.883 z" />
   <path
   id="path12"
   d="m 154.412,339.368 c -0.194,-1.299 -0.649,-2.508 -1.26,-3.662 -0.627,-1.71 -1.443,-3.286 -2.403,-4.773 -0.965,-1.487 -2.076,-2.891 -3.291,-4.251 -2.825,-3.151 -6.188,-5.267 -10.15,-6.554 h -0.006 c -1.493,-0.732 -3.096,-1.032 -4.733,-1.177 -0.305,-0.021 -0.61,-0.05 -0.916,-0.072 -1.099,-0.255 -2.192,-0.377 -3.291,-0.377 -1.127,0 -2.248,0.128 -3.375,0.344 -1.665,-0.094 -3.257,0.277 -4.839,0.732 h -0.006 c -2.092,0.539 -4.129,1.188 -5.927,2.437 h -0.006 c -0.993,0.405 -1.964,0.827 -2.542,1.815 -0.81,0.311 -1.476,0.782 -2.064,1.348 -0.583,0.561 -1.088,1.216 -1.593,1.876 -0.649,0.311 -1.11,0.777 -1.293,1.493 -0.683,0.61 -1.271,1.287 -1.587,2.17 -0.228,0.072 -0.294,0.244 -0.294,0.443 v 0.072 c -0.405,0.389 -0.749,0.811 -0.894,1.365 -0.005,0 -0.005,0 -0.005,0 -0.488,0.788 -1.032,1.549 -1.238,2.48 -0.488,0.649 -0.827,1.36 -0.882,2.187 0,0.006 0,0.006 0,0.006 -1.148,2.681 -1.631,5.511 -1.865,8.396 v 0.006 c -0.133,1.659 -0.233,3.308 -0.044,4.973 v 0.005 c 0.067,8.158 2.703,15.306 8.347,21.283 0.661,1.004 1.576,1.726 2.575,2.358 0.466,0.61 1.01,1.11 1.787,1.282 2.003,1.465 4.135,2.514 6.382,3.207 2.248,0.699 4.606,1.044 7.059,1.1 1.659,0.149 3.318,0.116 4.978,-0.045 1.948,-0.066 3.834,-0.449 5.661,-1.148 0.555,-0.028 1.071,-0.178 1.515,-0.533 0.389,-0.139 0.783,-0.261 1.166,-0.416 4.19,-1.754 7.453,-4.634 10.123,-8.258 3.174,-4.312 5.255,-9.052 5.833,-14.412 v -0.006 c 0.544,-1.01 0.322,-2.125 0.417,-3.186 0.397,-4.25 0.02,-8.439 -1.339,-12.508 z m -9.43,14.279 c -0.355,0.832 -0.477,1.709 -0.588,2.598 -0.76,2.158 -1.704,4.229 -2.825,6.221 -0.655,0.815 -1.31,1.637 -1.959,2.453 -0.266,0.244 -0.527,0.488 -0.788,0.727 -0.522,0.306 -1.021,0.639 -1.382,1.144 -0.267,0.217 -0.539,0.433 -0.811,0.654 -1.681,0.616 -3.363,1.238 -5.039,1.859 -3.208,0.261 -6.387,0.399 -9.495,-0.743 -5.516,-2.031 -8.613,-6.222 -10.3,-11.599 -1.57,-5.018 -1.559,-10.111 0.017,-15.112 2.614,-8.291 8.891,-13.219 17.765,-12.48 3.229,0.267 5.949,1.531 8.552,3.258 0.938,0.96 1.87,1.92 2.808,2.886 0.66,1.099 1.321,2.203 1.981,3.308 0.389,0.954 0.771,1.903 1.16,2.853 -0.033,0.1 -0.017,0.183 0.05,0.266 0.206,0.722 0.411,1.449 0.61,2.176 0.011,0.205 0.022,0.416 0.028,0.622 -0.017,0.332 -0.211,0.71 0.206,0.948 0.017,0.095 0.033,0.188 0.044,0.283 0.011,0.083 0.017,0.167 0.022,0.25 0,0.011 0.006,0.022 0.006,0.033 0.005,0.089 0.005,0.172 0.011,0.261 v 0.033 c 0.006,0.072 0.006,0.145 0.011,0.217 0.011,0.443 0.028,0.888 0.172,1.32 0.017,0.062 0.039,0.122 0.067,0.184 0.005,0.799 0.005,1.593 0.011,2.386 -0.267,0.98 -0.316,1.985 -0.334,2.994 z" />
   <path
   id="path14"
   d="m 110.452,375.572 c 0.066,-0.071 0.126,-0.127 0.181,-0.17 v 0 c -0.031,0.139 -0.062,0.249 -0.181,0.17 z" />
</g>
<path
   id="path18"
   d="m 208.32447,28.569 c -1.5,0 -3.003,-0.553 -4.178,-1.667 -2.432,-2.308 -2.533,-6.15 -0.226,-8.582 11.21,-11.814 25.865,-18.32 41.268,-18.32 16.019,0 31.922,6.827 41.504,17.816 2.204,2.527 1.942,6.362 -0.585,8.565 -2.528,2.203 -6.362,1.941 -8.564,-0.585 -7.346,-8.423 -19.742,-13.655 -32.354,-13.655 -16.243,0 -27.309,9.107 -32.459,14.535 -1.195,1.258 -2.8,1.893 -4.406,1.893 z" />
<path
   id="path20"
   d="m 293.25547,60.538 h -40.724 c -3.354,0 -6.071,-2.718 -6.071,-6.071 0,-3.353 2.718,-6.071 6.071,-6.071 h 40.724 c 3.354,0 6.07,2.718 6.07,6.071 0,3.353 -2.717,6.071 -6.07,6.071 z" />
<path
   id="path22"
   d="m 293.25547,60.538 h -40.724 c -3.354,0 -6.071,-2.718 -6.071,-6.071 0,-3.353 2.718,-6.071 6.071,-6.071 h 40.724 c 3.354,0 6.07,2.718 6.07,6.071 0,3.353 -2.717,6.071 -6.07,6.071 z" />
<path
   id="path24"
   d="m 294.20547,65.304 c -3.187,-1.044 -6.614,0.696 -7.657,3.882 -5.863,17.924 -22.485,29.967 -41.359,29.967 -23.989,0 -43.506,-19.517 -43.506,-43.506 0,-30.684 -24.964,-55.647 -55.647,-55.647 -30.685,0 -55.647,24.963 -55.647,55.647 0,30.685 24.963,55.647 55.647,55.647 12.655,0 24.582,-4.141 34.489,-11.974 l 5.484,-4.716 c 2.541,-2.188 2.827,-6.021 0.639,-8.562 -2.189,-2.54 -6.022,-2.826 -8.561,-0.639 l -5.189,4.468 c -7.722,6.072 -17.008,9.281 -26.862,9.281 -23.99,0 -43.506,-19.517 -43.506,-43.506 0,-23.989 19.517,-43.506 43.506,-43.506 23.989,0 43.506,19.517 43.506,43.506 0,30.685 24.964,55.647 55.647,55.647 24.14,0 45.398,-15.405 52.899,-38.333 1.042,-3.185 -0.696,-6.613 -3.883,-7.656 z" />
</svg>