<svg xmlns="http://www.w3.org/2000/svg" viewBox="0 0 601.14471 139.6992" height="139" width="601">
    <path d="M93.55 83.627V.238h62.899v16.32h-44.673v16.917h39.312v16.32h-39.312v17.512h45.268v16.32H93.55z"/>
    <path d="M173.364 83.627V.238h19.775L215.06 35.5 236.977.238h19.775v83.39h-18.227V29.185l-23.468 35.619h-.476l-23.23-35.261v54.083z"/>
    <path d="M277.6 83.627V.238h18.345v83.39z"/>
    <path d="M338.83 84.222L310.36.238h19.655l17.273 56.466L365.991 0h15.725l18.703 56.704L417.69.238h19.18L408.4 84.222h-15.962l-18.822-54.56-18.823 54.56z"/>
    <path d="M450.451 83.627V.238h62.898v16.32h-44.672v16.917h39.311v16.32h-39.31v17.512h45.267v16.32h-63.494z"/>
    <path d="M530.265 83.627V.238h38.716c9.609 0 16.876 2.463 21.8 7.386 3.813 3.812 5.719 8.618 5.719 14.414 0 7.863-3.654 13.86-10.96 17.988 5.161 1.986 9.054 4.587 11.674 7.803 2.62 3.216 3.93 7.526 3.93 12.925 0 7.466-2.78 13.145-8.338 17.035-5.56 3.892-13.184 5.838-22.872 5.838h-39.669zm17.87-49.676h16.916c8.814 0 13.223-3.017 13.223-9.053 0-2.78-1.034-4.903-3.098-6.373-2.066-1.47-5.044-2.204-8.934-2.204h-18.107zm0 33.594h21.8c8.655 0 12.984-3.098 12.984-9.292 0-6.035-4.527-9.054-13.58-9.054h-21.204z"/>
    <path d="M64.84 12.091C56.58 4.191 45.94.24 32.916.24H.394v50.473h18.345V16.797h14.176c7.464 0 13.52 2.343 18.167 7.028 4.646 4.688 6.968 10.722 6.968 18.108 0 7.466-2.304 13.52-6.909 18.167-4.607 4.645-10.682 6.968-18.226 6.968H18.739v-.173H.394v16.732h32.521c12.944 0 23.567-3.97 31.866-11.912 8.298-7.941 12.45-17.87 12.45-29.782 0-11.99-4.131-21.938-12.39-29.842z"/>
    <g>
        <path d="M0 139.034V100.25h2.881v38.785z"/>
        <path d="M24.766 139.034V100.25h2.716l26.761 33.744v-33.744h2.77v38.785h-2.16l-27.316-34.463v34.463z"/>
        <path d="M89.26 139.034V102.91H75.741v-2.66h29.92v2.66h-13.52v36.125z"/>
        <path d="M124.389 139.034V100.25h27.593v2.66H127.27v15.237h22.219v2.66H127.27v15.57h24.989v2.659h-27.87z"/>
        <path d="M171.485 139.034V100.25h16.29c4.728 0 8.366 1.275 10.915 3.824 1.958 1.958 2.937 4.396 2.937 7.313 0 3.14-1.035 5.652-3.103 7.536-2.07 1.883-4.82 3.066-8.256 3.546l12.8 16.566h-3.657l-12.356-16.068h-12.689v16.068h-2.881zm2.881-18.672h13.076c3.325 0 6.04-.803 8.145-2.41 2.106-1.607 3.159-3.795 3.159-6.566 0-2.622-.98-4.69-2.937-6.205-1.959-1.515-4.692-2.272-8.2-2.272h-13.243z"/>
        <path d="M221.518 139.034V100.25h2.715l26.761 33.744v-33.744h2.77v38.785h-2.16l-27.316-34.463v34.463z"/>
        <path d="M271.938 139.034l18.063-39.061h2.77l18.064 39.061h-3.159l-4.93-10.86h-22.884l-4.932 10.86zm9.143-13.463h20.445l-10.195-22.44z"/>
        <path d="M339.757 139.034V102.91h-13.52v-2.66h29.92v2.66h-13.519v36.125z"/>
        <path d="M375.273 139.034V100.25h2.881v38.785z"/>
        <path d="M431.844 133.77c-3.658 3.954-8.35 5.93-14.074 5.93-5.726 0-10.398-1.968-14.018-5.902-3.62-3.933-5.43-8.652-5.43-14.156 0-5.467 1.828-10.176 5.485-14.13 3.657-3.952 8.348-5.928 14.074-5.928 5.725 0 10.397 1.967 14.017 5.901 3.62 3.934 5.431 8.653 5.431 14.157 0 5.467-1.829 10.177-5.485 14.128zm-25.792-1.773c3.158 3.4 7.1 5.099 11.83 5.099 4.727 0 8.65-1.68 11.773-5.043 3.12-3.36 4.682-7.498 4.682-12.41 0-4.84-1.58-8.958-4.737-12.357-3.159-3.398-7.102-5.098-11.83-5.098-4.73 0-8.654 1.682-11.774 5.043-3.122 3.361-4.682 7.499-4.682 12.411 0 4.84 1.579 8.958 4.738 12.355z"/>
        <path d="M457.108 139.034V100.25h2.715l26.762 33.744v-33.744h2.77v38.785h-2.16l-27.316-34.463v34.463z"/>
        <path d="M507.529 139.034l18.063-39.061h2.77l18.063 39.061h-3.158l-4.931-10.86h-22.883l-4.932 10.86zm9.143-13.463h20.444l-10.195-22.44z"/>
        <path d="M564.599 139.034V100.25h2.881v36.126h22.772v2.66z"/>
    </g>
</svg>
